<svg width="128" height="128" viewBox="0 0 128 128" fill="none" xmlns="http://www.w3.org/2000/svg">
<mask id="mask0_9_2" style="mask-type:alpha" maskUnits="userSpaceOnUse" x="18" y="7" width="91" height="114">
<path d="M97 7C103.627 7 109 12.3726 109 19V39.7061C109 46.3334 103.627 51.706 97 51.7061H85.0801C78.2903 51.7061 72.7861 57.2102 72.7861 64C72.7861 70.7898 78.2903 76.2939 85.0801 76.2939H97C103.627 76.2939 109 81.6666 109 88.2939V109C109 115.627 103.627 121 97 121H30C23.3726 121 18 115.627 18 109V19C18 12.3726 23.3726 7 30 7H97ZM54 51C47.3726 51 42 56.3726 42 63V67C42 73.6274 47.3726 79 54 79H58C64.6274 79 70 73.6274 70 67V63C70 56.3726 64.6274 51 58 51H54Z" fill="white"/>
</mask>
<g mask="url(#mask0_9_2)">
<rect width="128" height="86" rx="9" fill="#FEE35C"/>
<rect y="35" width="128" height="80" rx="9" fill="#F8C742"/>
<rect y="75" width="128" height="53" rx="9" fill="#F2A01F"/>
</g>
</svg>
